Patient4_TMGait_0pt4_01_right_23_EMG.mot
version=1
nRows=36
nColumns=33
inDegrees=no
endheader
time	1LAddLong	2LGlutMax	3LGlutMed	4LIliopsoas	5LSemiMemb	6LBicFemLong	7LRecFem	8LVastMed	9LVastLat	10LGasMed	11LTibAnt	12lTibPost	13LPeroneusLong	14LSol	15LExtDigLong	16LFlexDigLong	17RAddLong	18RGlutMax	19RGlutMed	20RIliopsoas	21RSemiMemb	22RBicFemLong	23RRecFem	24RVastMed	25RVastLat	26RGasMed	27RTibAnt	28RTibPost	29RPeroneusLong	30RSol	31RExtDigLong	32RFlexDigLong
30.94	0.008087	0.018158	0.14908	-0.005035	0.005951	0.009766	0.030365	0.007324	-0.35217	-0.030212	0.13428	0.002747	0.13016	0.005188	-0.1535	-0.010529	-0.067291	0.012207	0.39414	-0.009918	0.27771	0.26764	-0.034943	0.060272	0.000916	-0.052643	0.13428	-0.002899	-0.017242	-0.042114	0.000305	0.032349
30.941	0.000153	0.006561	0.13672	0.01358	-0.002899	0.006256	0.009003	0.004425	-0.25452	-0.036163	0.1442	0.001678	0.037689	0.030212	-0.10513	-0.008698	-0.04303	-0.037384	0.029907	-0.016327	0.11734	0.16556	-0.035248	0.000153	-0.020142	-0.059814	0.1532	-0.007477	-0.057831	-0.085297	0.011597	0.038757
30.942	0.00473	-0.003052	0.18234	0.023651	0.002747	-0.000153	0.007324	0.005188	-0.13382	-0.028687	-0.16266	-0.002289	-0.070953	0.095215	-0.045929	-0.004578	-0.014038	-0.019379	-0.37323	-0.007019	0.028992	0.094757	0.025177	-0.046997	-0.015411	-0.062561	0.22614	-0.005798	-0.18677	-0.061493	0.012512	0.059509
30.943	0.002747	-0.029297	0.046692	0.014496	0.011292	0.003204	0.007477	0.011597	-0.06897	-0.036163	-0.039673	0.00351	-0.11597	0.033112	0.098267	0.002594	0.007019	-0.015564	-0.050964	-0.030823	0.057373	0.089264	-0.034027	-0.033569	-0.020294	-0.054626	0.15076	-0.006104	-0.14755	-0.019073	0.008392	0.085144
30.944	0.005798	-0.017548	-0.007324	-0.000305	0.008392	0.005493	0.028381	0.00351	-0.032654	-0.037689	0.024872	0.007782	-0.055847	0.039368	0.050201	-0.33951	0.047913	-0.011444	0.04715	-0.007172	0.050201	0.093689	-0.001221	-0.011139	-0.029755	-0.049133	-0.082092	-0.007172	-0.12177	-0.018005	0.010071	0.12634
30.945	0.002594	-0.010376	-0.046082	0.017395	0.017395	-0.004578	0.018616	0.008392	-0.00946	-0.067139	0.005188	0.001831	0.009155	-0.027618	0.025024	-0.12497	0.025787	0.008698	-0.26916	-0.012207	-0.085297	0.112	-0.00061	-0.06424	-0.028381	-0.051575	0.053864	-0.006409	-0.19592	-0.063019	0.012817	0.1976
30.946	0.007935	-0.037231	0.081482	0.001831	0.014343	-0.005188	0.012054	0.005646	0.002289	-0.065155	-0.017395	-0.000458	0.023499	-0.10696	-0.058441	0.78537	0.083008	0.050659	-0.37994	-0.030518	-0.071411	0.13672	0.026398	-0.12116	-0.037079	-0.050964	0.022736	-0.011444	-0.11948	-0.020599	0.008698	0.35477
30.947	0.004883	-0.031891	0.089874	0.004578	0.010986	0.000458	0.029602	0.007629	0.016174	-0.044861	-0.035858	0.00824	0.001221	-0.16113	-0.04837	-0.20218	0.086212	-0.008087	-0.20172	-0.007477	-0.045471	0.17044	0.005341	-0.14404	-0.059357	-0.046692	-0.053558	-0.009003	0.088959	-0.016022	0.009918	-0.35309
30.948	-0.002594	-0.027008	0.12863	-0.000458	-0.024414	0.004425	0.038757	0.012054	0.001526	-0.015259	-0.011292	0.001373	-0.019836	-0.087128	-0.029297	-0.092773	0.07019	0.05127	0.26001	-0.011902	-0.11963	0.33234	0.009003	-0.12314	-0.037079	-0.039978	-0.016632	-0.00946	-0.035706	-0.053253	0.011597	-0.52429
30.949	-0.00351	-0.035858	0.034485	0.002594	-0.026245	-0.016327	0.036316	0.013885	0.011749	0.01709	0.008392	0.00412	-0.088959	0.10681	-0.00061	0.043793	0.033264	0.04303	-0.2919	0.027771	-0.2002	0.41184	-0.037384	-0.054779	-0.019989	-0.046387	0.068207	0	-0.11505	-0.074615	0.014038	-0.48294
30.95	-0.004272	-0.020294	-0.019226	0.015106	-0.005493	-0.019379	0.029755	0.012054	0.018921	-0.028839	0.03952	-0.006561	-0.15549	0.17868	-0.012665	0.19119	-0.015106	0.00412	-0.59952	0.054474	-0.17639	0.27329	-0.060577	-0.012207	-0.017548	-0.038605	0.099335	-0.009918	-0.068054	-0.050201	0.006409	-0.33188
30.951	0.007019	-0.027008	-0.067139	0.006866	0.008698	-0.028381	0.006104	0.009613	0.034485	-0.070343	0.019379	-0.001984	-0.097656	0.17868	0.004578	-0.4689	-0.057678	0.075073	-0.3775	-0.003815	0.007629	0.23956	-0.084381	-0.000458	0.004578	-0.036926	0.051117	-0.007019	-0.076447	-0.043945	0.009308	-0.48492
30.952	0.010071	-0.028076	-0.00824	-0.012207	0.027771	-0.058289	0.0177	0.007324	0.044861	-0.019226	0.005341	0.00473	0.020905	0.088959	0.011444	0.26321	-0.040741	0.11078	0.33859	-0.052948	-0.056305	0.20676	-0.10117	-0.00061	0.00061	-0.028534	-0.000305	-0.003815	0.032196	-0.054779	0.01236	-0.34485
30.953	0.007324	-0.018158	0.058899	0.008545	0.005341	-0.084686	0.006561	0.011597	0.06134	-0.020142	-0.005646	0.031128	0.075836	0.087891	0.046692	0.070953	-0.023651	0.066223	0.7724	-0.021057	-0.075684	0.21881	-0.074615	-0.025177	-0.016327	-0.014343	0.029602	-0.007782	0.046539	-0.027161	0.010986	-0.26764
30.954	0.005951	-0.070038	0.018921	-0.008545	0.029144	-0.083466	0.008545	0.016632	0.083466	-0.14099	-0.001373	0.050201	0.06546	0.11017	0.036469	-0.64651	-0.039673	0.005188	0.48904	-0.004578	-0.058289	0.26443	-0.092926	0.045776	-0.000305	-0.028076	0.085449	-0.006256	0.033722	0.001831	0.011749	-0.2095
30.955	0.005341	-0.076599	-0.009003	0.006256	0.005035	-0.030212	0.04303	-0.003662	0.065002	-0.084534	-0.007477	-0.006866	0.081177	-0.031128	0.024109	0.46753	-0.042877	-0.037384	-0.088501	0.01709	-0.002441	0.31174	-0.082397	0.019836	0.012054	-0.023804	0.059052	-0.000763	0.027161	-0.012207	0.013885	-0.16708
30.956	0.012207	-0.036621	-0.031128	0.011444	-0.000153	-0.01709	0.07782	0.005341	0.028992	0.20279	-0.000153	-0.045776	0.10193	-0.18127	0.032654	0.24735	-0.023193	-0.037994	-0.29343	0.028381	0.18295	0.28412	-0.075531	0.068359	0.020752	-0.02594	0.052795	-0.001831	-0.022583	-0.035706	0.013123	-0.10696
30.957	-0.002594	-0.078583	-0.019836	-0.010376	-0.001984	0.026245	0.074158	0.002289	-0.021057	0.42206	-0.016632	-0.003662	0.12528	-0.25116	0.011292	-0.19379	-0.015869	-0.024414	-0.46661	0.058136	0.018158	0.18295	-0.047607	0.048676	0.029602	-0.030365	-0.003052	-0.001373	0.018768	-0.014496	0.018158	-0.057983
30.958	0.012512	-0.064545	-0.039063	0.019226	-0.025024	0.029449	0.063477	0.007935	-0.02594	0.52612	0.001984	-0.013733	0.096741	-0.26733	-0.012665	0.20615	-0.016174	-0.006104	-0.63797	-0.009308	-0.11917	0.18356	-0.020752	0.02655	0.016937	-0.032043	0.10132	-0.002289	0.015564	-0.013123	0.014648	-0.029602
30.959	0.01358	-0.028687	-0.0383	-0.000916	-0.011597	0.015106	0.091553	0.011139	-0.026093	0.50568	0.024719	0.016174	-0.021973	-0.32806	-0.002136	-0.019836	0.023804	0.063019	-0.15671	-0.24597	-0.059662	0.21027	-0.02243	-0.022888	0.009308	-0.031738	0.065765	-0.002441	-0.13748	-0.05722	0.012817	0.00824
30.96	0.000305	-0.046234	-0.093689	0.009308	0.047913	-0.012512	0.092163	0.014954	-0.052795	0.43533	0.002747	0.031738	-0.012665	-0.1831	0.009918	-0.035706	0.052032	0.026398	0.010223	-0.32806	0.11658	0.23193	-0.043488	-0.04425	0.006104	-0.032349	0.057831	-0.002594	-0.20157	-0.04303	0.008698	0.0354
30.961	0.00946	-0.069427	-0.08606	0.002136	0.039368	0.013428	0.029144	0.02594	-0.019226	0.18631	-0.002899	-0.000458	0.053558	-0.029449	0.007782	-0.001221	0.015259	0.02533	0.36636	-0.18066	-0.098877	0.2562	-0.043182	-0.02243	0.016632	-0.0354	0.07843	-0.005188	-0.56732	-0.023956	0.012054	0.053253
30.962	0.009613	-0.006561	-0.031128	-0.000763	0.022583	0.018005	0.006561	0.012207	-0.019073	-0.21881	-0.00824	0.011749	0.07782	-0.012665	-0.001678	-0.014801	-0.048523	0.076752	0.23056	-0.12909	-0.14297	0.32959	-0.071259	0.10147	0.021515	-0.017853	0.008545	0.004883	-0.50629	-0.013885	0.013123	0.071564
30.963	0.016327	-0.072174	0.007935	0.032654	0.01297	-0.008392	-0.11108	0.021667	-0.032654	-0.31708	0.009918	0.008698	-0.10483	0.072479	0.00412	-0.016785	-0.021973	-0.018158	0.58899	-0.093689	-0.17685	0.38879	-0.046997	0.17014	0.009613	0.020294	-0.11047	-0.002136	0.51849	-0.046844	0.013275	0.083923
30.964	0.012512	-0.084534	-0.13504	0.026093	0.018463	-0.017853	-0.17517	0.004578	0.055237	-0.19867	-0.001984	0.006561	0.64484	0.15182	0.032654	-0.011444	0.00824	-0.075073	0.43991	0.36499	-0.18539	0.44586	-0.021515	0.070038	0.001678	0.038605	-0.19531	-0.005188	0.7579	-0.028534	0.007629	0.089722
30.965	0.010986	-0.041199	-0.11337	-0.044861	0.006714	0.00824	-0.099335	-0.011292	0.15717	-0.16602	-0.02121	-0.12344	0.60928	0.066071	-0.009766	-0.000153	-0.028992	-0.059662	0.78125	0.40527	0.36392	0.46005	-0.033264	0.074615	-0.004425	0.044098	-0.17761	-0.003204	0.46448	-0.016632	0.007935	0.082245
30.966	0.001526	-0.062714	-0.13046	-0.010986	-0.002747	0.005646	-0.023346	-0.003967	0.10315	-0.10101	0.011444	0.11017	-0.085449	0.057068	-0.045776	-0.029449	-0.034332	-0.048523	0.33768	0.089264	0.23621	0.35507	-0.079651	0.093079	-0.005951	0.042877	-0.076141	-0.001831	0.29221	0.009155	0.010071	0.085907
30.967	-0.020599	-0.040741	-0.092316	0.001984	-0.00061	0.011749	-0.014954	0.007935	0.055695	-0.22003	0.018311	0.016785	-0.16785	0.1976	0.005035	-0.026245	-0.036316	-0.041656	-0.13748	0.054321	0.060425	0.2771	-0.10727	0.070496	0.005493	0.057068	0.053406	-0.00351	0.083618	-0.019989	0.017548	0.080261
30.968	-0.080566	-0.030212	-0.1091	-0.009003	0.001831	0.012054	0.029144	0.001678	0.055389	-0.090027	0.016632	0.002747	-0.009155	-0.010834	-0.061188	-0.01358	-0.034637	-0.023041	-0.16068	0.18021	0.14725	0.19196	-0.063019	0.080414	-0.002747	0.06424	0.12558	-0.005798	-0.1857	-0.023804	0.009155	0.068207
30.969	0.1561	-0.080872	-0.077667	0.005646	0.005646	0.018768	0.07019	-0.012817	0.054169	-0.048523	0.033722	-0.011444	-0.17029	0.13901	0.040283	-0.020905	-0.04837	-0.005188	-0.2713	0.18494	0.066223	0.008698	-0.092926	0.10574	0.009308	0.072479	0.10742	-0.003204	-0.018311	-0.028687	0.019226	0.072174
30.97	0.086975	-0.07309	-0.10864	0.014343	0.005188	0.002594	0.050507	-0.015259	0.026855	-0.018158	0.049133	0.002136	-0.16266	0.26581	0.065918	-0.01297	-0.042725	0.018921	-0.2153	0.097351	0.061188	-0.050201	-0.077362	0.036469	-0.001526	0.091553	0.022888	-0.005035	0.14847	-0.026855	0.011444	0.065308
30.971	0.013733	-0.087738	-0.12741	0.005341	0.005035	0.011902	0.036011	-0.009155	0.005951	-0.054626	-0.005951	0.019836	0.43808	0.17136	0.004425	-0.005493	-0.031433	0.019684	0.08728	0.023193	-0.032043	-0.066833	-0.063934	0.054169	0.013733	0.10925	0.032196	-0.007324	-0.10727	-0.010986	0.007019	0.063019
30.972	0.029602	-0.10925	-0.19852	0.01709	0.005341	-0.013733	0.021973	-0.00473	0.014648	-0.087128	-0.019989	0.0177	0.28397	0.030823	-0.033722	-0.009918	-0.019684	-0.022583	0.31326	-0.018921	-0.19455	-0.01236	-0.05188	0.04715	0.028839	0.1239	0.022278	-0.009003	-0.26352	0.004425	0.010681	0.063019
30.973	0.009308	-0.071564	-0.13886	-0.007629	0.004578	-0.001373	0.033264	-0.002899	0.011902	-0.099335	-0.018463	-0.033722	-0.062714	0.038757	0.014954	-0.004883	0.019836	-0.012665	0.11047	-0.015106	-0.21088	0.056915	-0.010223	-0.007935	0.015564	0.12924	-0.01297	-0.001526	0.005188	0.021057	0.00946	0.060272
30.974	-0.000153	-0.0737	-0.1088	-0.010376	-0.00061	0	0.008392	0.001221	0.025787	-0.12283	-0.017242	-0.12375	-0.11078	0.15289	0.029755	-0.002594	0.016174	-0.014038	-0.043335	-0.046387	-0.029144	0.12436	-0.062561	-0.018005	0.031738	0.13901	-0.01297	-0.005798	-0.005646	-0.008392	0.011139	0.052948
30.975	-0.000153	-0.0737	-0.11139	0.015564	0.004425	0.00351	0.019836	-0.003662	0.019226	-0.074158	0.011749	0.093689	-0.36819	0.023346	-0.027924	-0.001373	-0.003052	-0.019226	-0.038147	-0.013275	0.21957	0.14832	-0.046692	0.022125	0.029907	0.14481	0.00061	0.004883	-0.010834	-0.005951	0.004883	0.045471
